<svg xmlns="http://www.w3.org/2000/svg" width="44px" height="44px" viewBox="0 0 44 44">
  <title>Tools</title>
  <g id="Tools" fill="#888" fill-rule="nonzero">
    <path id="Shape" d="M23.427 3.948c-.363-.09-.522-.127-.713-.165l-.81-.163v-.832c0-.414.17-.645.417-.852.09-.073.19-.135.3-.198.16-.09.37-.185.62-.29.44-.185 1.03-.402 1.68-.622C26.33.346 27.56 0 28.01 0l.22.025c2.454.555 4.882 2.252 7.264 4.74.9.94 1.74 1.936 2.538 2.974.464.6 1.388 1.89 1.22 1.66l.29.38-.118.47c-.12.472-.005 1.003.32 1.44.228.15.51.265.82.34h.7c.257 0 .38.044.6.155-.07-.035-.125-.056-.3-.056H42l1.442 1.576c.755.61.72 1.696.036 2.388l-3.465 3.492c-.6.78-1.69.752-2.38.055l-1.308-1.32c-.11-.11-.162-.163-.232-.26-.16-.213-.264-.453-.264-.76V17l.01-.144c.06-.42-.06-.803-.35-1.096-.74-.806-2.95-.307-4.68 1.444l-.32.326-.85.866c-.873.894-1.745 1.79-2.56 2.63-1.73 1.784-2.936 3.04-3.434 3.577-.167.55-.43 1.06-.77 1.403L6.91 43.23c-1.2 1.384-3.407.807-5.264-.94-1.756-1.652-2.16-3.694-.976-5.06l17.344-15.97c.358-.36.812-.63 1.304-.796l7.61-7.174c2.3-2.586 2.5-6.17.51-8.167-.424-.282-.997-.48-1.91-.693l-.312-.07c-.158-.036-.158-.036-.317-.07-.31-.068-.51-.114-.7-.164-.22-.044-.4-.086-.78-.178zm15.362 14.01l3.01-3.037-.78-.85h-.58l-.2-.02c-.67-.13-1.3-.4-1.816-.79l-.16-.15c-.688-.81-1.006-1.84-.9-2.84l-.18-.25c-.25-.35-.497-.68-.766-1.03-.745-.99-1.54-1.93-2.38-2.81-2.08-2.18-4.16-3.652-6.11-4.14-.23.046-.914.238-1.678.48 1.043.257 1.76.53 2.403.985l.12.1c2.895 2.802 2.648 7.668-.412 11.104l-8.034 7.58-.253.064c-.257.064-.487.188-.672.373L2.157 38.6c-.334.435-.15 1.253.862 2.206.62.584 1.257.966 1.78 1.103.355.09.535.05.62-.05L21.433 24.6c.117-.12.26-.422.34-.746l.06-.245.167-.19c.382-.43 1.668-1.77 3.607-3.77.855-.88 1.728-1.78 2.6-2.675l.845-.866.326-.335c2.444-2.463 5.888-3.243 7.557-1.42.687.694 1.004 1.655.906 2.64l.95.955z"/>
  </g>
</svg>
